<?xml version="1.0" encoding="utf-8"?>
<!-- Generator: Adobe Illustrator 16.0.0, SVG Export Plug-In . SVG Version: 6.00 Build 0)  -->
<!DOCTYPE svg PUBLIC "-//W3C//DTD SVG 1.1//EN" "http://www.w3.org/Graphics/SVG/1.1/DTD/svg11.dtd">
<svg version="1.1" xmlns="http://www.w3.org/2000/svg" xmlns:xlink="http://www.w3.org/1999/xlink" x="0px" y="0px" width="64px"
	 height="64px" viewBox="0 0 64 64" enable-background="new 0 0 64 64" xml:space="preserve">
<g id="eye">
	<g>
		<path fill="#1D1D1B" d="M2.252,10.271h58.871c1.124,0,2.034-0.91,2.034-2.034c0-1.123-0.91-2.034-2.034-2.034H2.252
			c-1.124,0-2.034,0.911-2.034,2.034C0.218,9.36,1.128,10.271,2.252,10.271z"/>
		<path fill="#1D1D1B" d="M61.123,30.015H2.252c-1.124,0-2.034,0.912-2.034,2.035c0,1.122,0.91,2.034,2.034,2.034h58.871
			c1.124,0,2.034-0.912,2.034-2.034C63.157,30.927,62.247,30.015,61.123,30.015z"/>
		<path fill="#1D1D1B" d="M61.123,53.876H2.252c-1.124,0-2.034,0.91-2.034,2.034c0,1.123,0.91,2.034,2.034,2.034h58.871
			c1.124,0,2.034-0.911,2.034-2.034C63.157,54.786,62.247,53.876,61.123,53.876z"/>
	</g>
</g>
<g id="comment">
</g>
<g id="map-marker">
</g>
<g id="earth">
</g>
<g id="heart">
</g>
<g id="twitter">
</g>
<g id="bucket">
</g>
<g id="paperclip">
</g>
<g id="undo">
</g>
<g id="redo">
</g>
<g id="chevron-left">
</g>
<g id="chevron-right">
</g>
<g id="cross">
</g>
<g id="search">
</g>
<g id="hamburger">
</g>
</svg>
